<?xml version="1.0" encoding="UTF-8"?>
<svg id="Layer_1" data-name="Layer 1" xmlns="http://www.w3.org/2000/svg" width="473.7" height="625.6" viewBox="0 0 473.7 625.6">
  <defs>
    <style>
      .cls-1 {
        fill: #f9c016;
      }
    </style>
  </defs>
  <g>
    <path class="cls-1" d="M379.1,240.3c1.3.6,15.3,8.2,13.3,9.6-39.4,4.4-78.6,21.1-108.9,46.5,41.5-9.7,81.9-25.2,124.9-28.5l-3,58.4c-1.5,5.9-19.9,6.2-26.1,7.9-19.3,5.2-38.8,11.7-57.7,18.2-8.4,2.9-64.4,22.6-66.2,26.7-.9,44.7-4.1,89.4-5.8,134.1s2.7,75.9-2,103.9c-1.9,11.1-18.6,12.2-21-2-3.9-23-.1-64.7-.9-90-1.6-48.8-3.9-97.8-6.3-146.6-47.1-21.8-97.7-37.9-148.5-49.8l-4.2-60.8,125.9,30c-30.2-26.5-71.1-43.3-110.9-47.9-2.3-1.7,9.4-6.7,10.3-7.2,73.9-36.2,212.2-35.8,287.1-2.5Z"/>
    <path class="cls-1" d="M275.1,71.7c-3,4.4-17.4,14.7-17.7,15.9-3.6,14.4,15.9,52.9,26.8,63.5,35.5,34.5,94.4,15.3,105.7-29,1.5-6-4.5-5.4-8.2-9.4-44-48,30.8-102.3,62.6-55.1,19.3,28.8-1.1,62.5-32.8,68.1l-4.1,96.3c-105.9-46.4-235.3-47.5-340.6,1,2.1-32.7,1.6-65.8-3.2-98.2-38.3-4.6-54.7-55.2-21.7-78,38.9-26.9,85.4,27.2,55.8,62.6-2.7,3.2-12.3,8.3-12.7,8.9-4.1,6.9,18.6,33,24.3,37.8,52.3,43.1,107.2-15.3,109.4-69.2C178.5,67.7,187.5,3.6,233,.1s63.7,39.6,42.1,71.6Z"/>
  </g>
  <path class="cls-1" d="M459,445.4c-24.9,69.9-85.2,130.6-155,155.2,3.9-8,13.6-15.7,17.2-23.8,7.4-16.5,9.5-95.6,10.3-118.6.3-7.8-.3-15.7,0-23.5l-23.9,14.5-7.3,123.6-29.7,25.3-2-1.1,7.9-166.9,2.5-4.5c20.3-16.8,53.8-29.5,73.2-45.6,4.9-4.1,6.5-11,10.9-14.2s32.7-12.3,35.3-12.7,3-.1,4.1,1.2l-2.8,47c-.9,3-31.3,17.2-35.6,22.4s-1.6,17.9-3.6,25.8c5.3,2.3,32.6-22.2,34.8-17.9,0,5.4-.4,22.2-2.8,26.4s-30,16.8-33.3,23.7l-6.7,60.7c2,1.9,15.2-9.4,17.6-11.4,68.2-57.5,93.1-157.4,71-242.6-1.7-6.5-9.7-22.7-9.7-27.2-.1-6.7,9-21,10-28.5,37.8,59.3,40.9,147.2,17.6,212.4Z"/>
  <path class="cls-1" d="M14.8,445.4c24.9,69.9,85.2,130.6,155,155.2-3.9-8-13.6-15.7-17.2-23.8-7.4-16.5-9.5-95.6-10.3-118.6-.3-7.8.3-15.7,0-23.5l23.9,14.5,7.3,123.6,29.7,25.3,2-1.1-7.9-166.9-2.5-4.5c-20.3-16.8-53.8-29.5-73.2-45.6-4.9-4.1-6.5-11-10.9-14.2-1.9-1.4-32.7-12.3-35.3-12.7s-3-.1-4.1,1.2l2.8,47c.9,3,31.3,17.2,35.6,22.4s1.6,17.9,3.6,25.8c-5.3,2.3-32.6-22.2-34.8-17.9,0,5.4.4,22.2,2.8,26.4s30,16.8,33.3,23.7l6.7,60.7c-2,1.9-15.2-9.4-17.6-11.4-68.2-57.5-93.1-157.4-71-242.6,1.7-6.5,9.7-22.7,9.7-27.2.1-6.7-9-21-10-28.5C-5.4,292.2-8.5,380.2,14.8,445.4Z"/>
</svg>